<svg width="870" height="287" viewBox="0 0 870 287" fill="none" xmlns="http://www.w3.org/2000/svg">
<g opacity="0.6">
<path d="M64.3971 203.885H63.8971V204.385V285.531H0.5V0.83252H121.128C157.414 0.83252 185.869 8.99637 205.247 25.3744C224.609 41.7401 234.984 66.3724 234.984 99.4837C234.984 132.597 224.607 158.676 205.231 176.482C185.849 194.292 157.395 203.885 121.128 203.885H64.3971ZM64.0249 150.465V150.965H64.5249H117.934C135.951 150.965 150.172 146.894 159.895 138.644C169.632 130.381 174.781 117.992 174.781 101.528C174.781 85.5079 169.661 73.4051 159.939 65.3195C150.233 57.247 136.013 53.2413 117.934 53.2413H64.5249H64.0249V53.7413V150.465Z" stroke="#B5D34A"/>
<path d="M344.347 203.885H343.847V204.385V285.531H280.449V0.83252H401.077C437.363 0.83252 465.786 8.99638 485.132 25.3741C504.463 41.7397 514.806 66.372 514.806 99.4837C514.806 132.597 504.461 158.677 485.116 176.482C465.766 194.292 437.345 203.885 401.077 203.885H344.347ZM343.974 150.465V150.965H344.474H397.883C415.837 150.965 430.026 146.894 439.733 138.643C449.453 130.381 454.603 117.992 454.603 101.528C454.603 85.5079 449.483 73.4054 439.777 65.3198C430.087 57.2472 415.899 53.2413 397.883 53.2413H344.474H343.974V53.7413V150.465Z" stroke="#B5D34A"/>
<path d="M617.661 93.2228V285.403H560.269V0.83252H631.773L714.817 175.084L715.269 176.033L715.72 175.084L798.508 0.83252H869.5V285.403H812.491V93.2228L811.538 93.0125L735.776 256.399H694.377L618.615 93.0125L617.661 93.2228Z" stroke="#B5D34A"/>
</g>
</svg>
