<svg width="18" height="18" viewBox="0 0 18 18" fill="none" xmlns="http://www.w3.org/2000/svg">
<g clip-path="url(#clip0_371_153)">
<path d="M12.6544 6.23531C12.5763 6.03305 12.4567 5.84938 12.3033 5.69615C12.1499 5.54291 11.9661 5.42351 11.7638 5.34563C11.4851 5.24243 11.1909 5.18789 10.8938 5.18438C10.3997 5.16188 10.2516 5.15625 9.00001 5.15625C7.74844 5.15625 7.60032 5.16188 7.10625 5.18438C6.80884 5.18778 6.51423 5.24232 6.23532 5.34563C6.03305 5.42372 5.84938 5.54332 5.69615 5.69671C5.54292 5.85011 5.42351 6.0339 5.34563 6.23625C5.24243 6.51487 5.18789 6.80915 5.18438 7.10625C5.16188 7.60031 5.15625 7.74844 5.15625 9C5.15625 10.2516 5.16188 10.3997 5.18438 10.8938C5.18778 11.1912 5.24233 11.4858 5.34563 11.7647C5.42373 11.967 5.54332 12.1506 5.69672 12.3039C5.85011 12.4571 6.03391 12.5765 6.23625 12.6544C6.51487 12.7576 6.80916 12.8121 7.10625 12.8156C7.60032 12.8381 7.74844 12.8428 9.00001 12.8428C10.2516 12.8428 10.3997 12.8381 10.8938 12.8147C11.1911 12.8116 11.4857 12.7574 11.7647 12.6544C11.967 12.5763 12.1506 12.4567 12.3039 12.3033C12.4571 12.1499 12.5765 11.9661 12.6544 11.7638C12.7576 11.4851 12.8121 11.1908 12.8156 10.8938C12.8381 10.3997 12.8428 10.2516 12.8428 9C12.8428 7.74844 12.8381 7.60031 12.8147 7.10625C12.8116 6.80889 12.7574 6.51429 12.6544 6.23531ZM9.00001 11.4075C8.52385 11.4075 8.05838 11.2663 7.66247 11.0018C7.26656 10.7372 6.95798 10.3612 6.77576 9.92131C6.59355 9.4814 6.54587 8.99733 6.63876 8.53032C6.73166 8.06331 6.96095 7.63434 7.29764 7.29764C7.63434 6.96095 8.06332 6.73165 8.53032 6.63876C8.99733 6.54587 9.4814 6.59354 9.92132 6.77576C10.3612 6.95798 10.7372 7.26655 11.0018 7.66247C11.2663 8.05838 11.4075 8.52384 11.4075 9C11.4075 9.63851 11.1539 10.2509 10.7024 10.7024C10.2509 11.1539 9.63851 11.4075 9.00001 11.4075ZM11.5022 7.06031C11.3909 7.06031 11.2822 7.02732 11.1897 6.96551C11.0972 6.90371 11.0251 6.81586 10.9825 6.71307C10.9399 6.61029 10.9288 6.49719 10.9505 6.38807C10.9722 6.27896 11.0258 6.17873 11.1044 6.10007C11.1831 6.0214 11.2833 5.96783 11.3925 5.94612C11.5016 5.92442 11.6147 5.93556 11.7175 5.97813C11.8202 6.0207 11.9081 6.0928 11.9699 6.1853C12.0317 6.27781 12.0647 6.38656 12.0647 6.49781C12.0647 6.647 12.0054 6.79007 11.8999 6.89556C11.7945 7.00105 11.6514 7.06031 11.5022 7.06031ZM10.5628 9C10.5628 9.3091 10.4712 9.61125 10.2994 9.86825C10.1277 10.1253 9.88363 10.3256 9.59807 10.4439C9.3125 10.5621 8.99827 10.5931 8.69512 10.5328C8.39196 10.4725 8.11349 10.3236 7.89493 10.1051C7.67637 9.88651 7.52752 9.60805 7.46722 9.30489C7.40692 9.00173 7.43787 8.6875 7.55615 8.40194C7.67444 8.11637 7.87475 7.87229 8.13175 7.70057C8.38876 7.52885 8.69091 7.43719 9.00001 7.43719C9.41449 7.43719 9.812 7.60184 10.1051 7.89493C10.3982 8.18801 10.5628 8.58552 10.5628 9ZM9.00001 0C7.21997 0 5.47991 0.527841 3.99987 1.51677C2.51983 2.50571 1.36628 3.91131 0.685088 5.55585C0.00389954 7.20038 -0.17433 9.00998 0.172937 10.7558C0.520204 12.5016 1.37737 14.1053 2.63604 15.364C3.89472 16.6226 5.49836 17.4798 7.24419 17.8271C8.99002 18.1743 10.7996 17.9961 12.4442 17.3149C14.0887 16.6337 15.4943 15.4802 16.4832 14.0001C17.4722 12.5201 18 10.78 18 9C18 6.61305 17.0518 4.32387 15.364 2.63604C13.6761 0.948212 11.387 0 9.00001 0ZM13.6594 10.9322C13.6514 11.3212 13.5776 11.706 13.4409 12.0703C13.3205 12.3816 13.1364 12.6644 12.9004 12.9004C12.6644 13.1364 12.3816 13.3205 12.0703 13.4409C11.7063 13.5775 11.3218 13.6513 10.9331 13.6594C10.4325 13.6819 10.2731 13.6875 9.00001 13.6875C7.72688 13.6875 7.5675 13.6819 7.06688 13.6594C6.6782 13.6513 6.29369 13.5775 5.92969 13.4409C5.61837 13.3205 5.33563 13.1364 5.0996 12.9004C4.86358 12.6644 4.67946 12.3816 4.55907 12.0703C4.42253 11.7063 4.34867 11.3218 4.34063 10.9331C4.31813 10.4325 4.3125 10.2731 4.3125 9C4.3125 7.72688 4.31813 7.5675 4.34063 7.06688C4.34837 6.67825 4.42191 6.29374 4.55813 5.92969C4.67852 5.6181 4.86273 5.33512 5.09893 5.09892C5.33513 4.86272 5.6181 4.67852 5.92969 4.55813C6.29375 4.42191 6.67825 4.34837 7.06688 4.34063C7.5675 4.31813 7.72688 4.3125 9.00001 4.3125C10.2731 4.3125 10.4325 4.31813 10.9331 4.34063C11.3218 4.34837 11.7063 4.42191 12.0703 4.55813C12.3817 4.67863 12.6645 4.86288 12.9006 5.09908C13.1366 5.33527 13.3207 5.61819 13.4409 5.92969C13.5775 6.29369 13.6513 6.67819 13.6594 7.06688C13.6819 7.5675 13.6875 7.72688 13.6875 9C13.6875 10.2731 13.6819 10.4316 13.6594 10.9322Z" fill="#414147"/>
</g>
<defs>
<clipPath id="clip0_371_153">
<rect width="18" height="18" fill="white"/>
</clipPath>
</defs>
</svg>
