<svg width="138" height="60" viewBox="0 0 138 60" fill="none" xmlns="http://www.w3.org/2000/svg">
<rect width="138" height="60" fill="#1E1E1E"/>
<g id="About Us" clip-path="url(#clip0_3_216)">
<rect width="1920" height="6989" transform="translate(-310 -60)" fill="white"/>
<rect id="Rectangle 1" x="-310" y="-12" width="1920" height="84" fill="#F3F9F8"/>
<g id="Logo - English">
<path id="Vector" d="M60.7543 29.5162H56.9948V38.9538H58.5856V36.1118H60.7543C63.1315 36.1118 64.49 34.8725 64.49 32.7395C64.49 30.6066 63.1315 29.5162 60.7543 29.5162ZM60.6887 34.6759H58.5856V30.9402H60.6887C62.1485 30.9402 62.9707 31.536 62.9707 32.7753C62.9707 34.0146 62.1485 34.6759 60.6887 34.6759Z" fill="#414147"/>
<path id="Vector_2" d="M67.6537 29.5162H66.0629V38.9538H67.6537V29.5162Z" fill="#414147"/>
<path id="Vector_3" d="M74.2612 39.0193C75.5958 39.0193 76.9542 38.4116 77.9135 37.4702L76.9721 36.4216C76.2571 37.1068 75.286 37.5417 74.3446 37.5417C72.4559 37.5417 70.9723 36.0701 70.9723 34.2112C70.9723 32.3523 72.4559 30.8985 74.3446 30.8985C75.2979 30.8985 76.281 31.3573 76.9721 32.0961L77.9015 30.9402C76.984 30.0346 75.6494 29.4865 74.3207 29.4865C71.5324 29.4865 69.3636 31.5479 69.3636 34.2291C69.3636 36.9102 71.5026 39.0253 74.2671 39.0253" fill="#414147"/>
<path id="Vector_4" d="M81.3929 38.9478H82.9778V30.9402H85.9747V29.5162H78.408V30.9402H81.3929V38.9478Z" fill="#414147"/>
<path id="Vector_5" d="M95.9903 34.229C95.9903 31.536 93.8037 29.4745 90.9855 29.4745C88.1673 29.4745 85.9867 31.5241 85.9867 34.229C85.9867 36.934 88.1733 39.0133 90.9855 39.0133C93.7977 39.0133 95.9903 36.9221 95.9903 34.229ZM91.0034 37.5834C89.1564 37.5834 87.6073 36.1058 87.6073 34.229C87.6073 32.3522 89.1445 30.8985 91.0034 30.8985C92.8623 30.8985 94.3578 32.3522 94.3578 34.229C94.3578 36.1058 92.8504 37.5834 91.0034 37.5834Z" fill="#414147"/>
<path id="Vector_6" d="M105.75 34.3125H104.361V36.94C103.688 37.3451 102.89 37.5834 102.187 37.5834C100.262 37.5834 98.737 36.1178 98.737 34.2291C98.737 32.3404 100.25 30.8866 102.175 30.8866C103.158 30.8866 104.171 31.2917 104.898 31.965L105.797 30.7913C104.868 29.981 103.521 29.4686 102.175 29.4686C99.3149 29.4686 97.1223 31.5301 97.1223 34.2231C97.1223 36.9161 99.2911 39.0074 102.079 39.0074C103.372 39.0074 104.784 38.5069 105.744 37.7801V34.3006L105.75 34.3125Z" fill="#414147"/>
<path id="Vector_7" d="M111.66 36.0879L113.382 38.9478H115.187L113.072 35.79C114.323 35.3074 115.026 34.2409 115.026 32.7336C115.026 30.684 113.638 29.5103 111.225 29.5103H107.4V38.9478H108.991V36.1058H111.225C111.374 36.1058 111.523 36.1058 111.66 36.0879ZM108.991 30.9402H111.225C112.679 30.9402 113.519 31.536 113.519 32.7753C113.519 34.0145 112.679 34.6759 111.225 34.6759H108.991V30.9402Z" fill="#414147"/>
<path id="Vector_8" d="M121.717 29.5162H120.085L115.92 38.9538H117.576L118.476 36.8268H123.236L124.136 38.9538H125.834L121.705 29.5162H121.717ZM119.078 35.4088L120.859 31.2143L122.641 35.4088H119.078Z" fill="#414147"/>
<path id="Vector_9" d="M135.587 31.8995L135.599 38.9478H137.071V29.5162H135.194L132.096 35.7841L128.98 29.5162H127.097V38.9478H128.593V31.8995L131.572 37.9648H132.608L135.587 31.8995Z" fill="#414147"/>
<path id="Vector_10" d="M59.2648 43.3032H56.7625V49.9643H57.5251V47.8611H59.2648C60.9093 47.8611 61.8625 47.015 61.8625 45.5374C61.8625 44.0598 60.9093 43.3032 59.2648 43.3032ZM59.235 47.1282H57.5251V44.036H59.235C60.4326 44.036 61.1237 44.5484 61.1237 45.5613C61.1237 46.5741 60.4326 47.1282 59.235 47.1282Z" fill="#414147"/>
<path id="Vector_11" d="M64.901 43.3032H64.1324V49.9643H67.8145V49.2374H64.901V43.3032Z" fill="#414147"/>
<path id="Vector_12" d="M72.1581 43.3032L69.1671 49.9643H69.9774L70.7162 48.2781H74.3506L75.0894 49.9643H75.9176L72.9386 43.3032H72.1521H72.1581ZM71.0439 47.5513L72.5275 44.173L74.0348 47.5513H71.0439Z" fill="#414147"/>
<path id="Vector_13" d="M80.6721 49.2493C79.1647 49.2493 77.9612 48.0815 77.9612 46.6277C77.9612 45.174 79.1647 44.0002 80.6721 44.0002C81.4049 44.0002 82.1259 44.316 82.6442 44.8403L83.097 44.2564C82.4595 43.6547 81.5777 43.2853 80.6602 43.2853C78.7298 43.2853 77.1866 44.7629 77.1866 46.6277C77.1866 48.4926 78.7119 50.006 80.6304 50.006C81.5539 50.006 82.4476 49.5949 83.103 48.9812L82.6383 48.4569C82.114 48.9454 81.399 49.2552 80.6661 49.2552" fill="#414147"/>
<path id="Vector_14" d="M86.2488 46.9554H89.6032V46.2226H86.2488V44.036H90.0084V43.3032H85.4862V49.9643H90.1275V49.2374H86.2488V46.9554Z" fill="#414147"/>
<path id="Vector_15" d="M96.0677 48.0994L93.6308 43.3032H92.6895V49.9643H93.4104V44.4709L95.8293 49.2612H96.2822L98.713 44.4709L98.725 49.9643H99.422V43.3032H98.4926L96.0677 48.0994Z" fill="#414147"/>
<path id="Vector_16" d="M104.474 43.3032L101.49 49.9643H102.3L103.039 48.2781H106.673L107.412 49.9643H108.24L105.261 43.3032H104.469H104.474ZM103.366 47.5513L104.85 44.173L106.351 47.5513H103.366Z" fill="#414147"/>
<path id="Vector_17" d="M115.545 43.3032H114.639L111.058 47.1342V43.3032H110.296V49.9643H111.058V48.2186L112.357 46.8005L114.812 49.9643H115.741L112.905 46.1928L115.545 43.3032Z" fill="#414147"/>
<path id="Vector_18" d="M118.72 46.9554H122.081V46.2226H118.72V44.036H122.48V43.3032H117.958V49.9643H122.599V49.2374H118.72V46.9554Z" fill="#414147"/>
<path id="Vector_19" d="M130.321 45.5374C130.321 44.1194 129.355 43.3032 127.693 43.3032H125.161V49.9643H125.924V47.8611H127.693C127.848 47.8611 127.997 47.8492 128.14 47.8432L129.522 49.9643H130.392L128.831 47.7002C129.79 47.3904 130.327 46.6456 130.327 45.5374M127.699 47.1282H125.929V44.036H127.699C128.909 44.036 129.594 44.5484 129.594 45.5613C129.594 46.5741 128.909 47.1282 127.699 47.1282Z" fill="#414147"/>
<path id="Vector_20" d="M133.562 44.9297C133.562 44.3697 134.122 44.042 134.98 44.042C135.51 44.042 136.219 44.2028 136.815 44.608L137.143 43.893C136.588 43.5236 135.796 43.2734 135.027 43.2734C133.645 43.2734 132.722 43.9466 132.722 44.9953C132.722 47.3844 136.469 46.455 136.457 48.2007C136.457 48.8382 135.862 49.2314 134.902 49.2314C134.152 49.2314 133.3 48.8859 132.68 48.2901L132.34 48.9752C132.966 49.571 133.919 49.9941 134.89 49.9941C136.32 49.9941 137.297 49.2791 137.297 48.1649C137.309 45.746 133.562 46.6397 133.562 44.9297Z" fill="#414147"/>
<path id="Vector_21" d="M9.6521 9.37799V22.7002H12.655V18.893H15.3003C18.6905 18.893 20.6328 17.0996 20.6328 14.0014C20.6328 10.9033 18.6905 9.37799 15.3003 9.37799H9.6521ZM17.7789 14.0968C17.7789 15.622 16.8256 16.3787 15.1514 16.3787H12.6609V11.8685H15.1514C16.8316 11.8685 17.7789 12.6132 17.7789 14.0968Z" fill="#414147"/>
<path id="Vector_22" d="M22.7062 9.37799V22.7002H25.709V18.893H28.3544C31.7445 18.893 33.6809 17.0996 33.6809 14.0014C33.6809 10.9033 31.7445 9.37799 28.3544 9.37799H22.7062ZM30.827 14.0968C30.827 15.622 29.8737 16.3787 28.2055 16.3787H25.715V11.8685H28.2055C29.8797 11.8685 30.827 12.6132 30.827 14.0968Z" fill="#414147"/>
<path id="Vector_23" d="M50.2204 22.6942V9.37799H46.872L43.0052 17.5167L39.1265 9.37799H35.7543V22.6942H38.4771V13.7095L42.0162 21.3418H43.9764L47.5155 13.7095V22.6942H50.2204Z" fill="#414147"/>
<path id="Vector_24" d="M0 49.9523L28.8906 49.9643H48.2305H50.3098V29.7426H28.8906V47.581L2.38322 47.5691L2.4011 2.37726L50.3217 2.39514V0.0178742L0.0238322 0L0 49.9523ZM33.3174 36.3739L36.1177 33.5736L39.5972 37.0531L43.0767 33.5736L45.877 36.3739L42.3975 39.8534L45.877 43.3329L43.0767 46.1332L39.5972 42.6537L36.1177 46.1332L33.3174 43.3329L36.797 39.8534L33.3174 36.3739Z" fill="#414147"/>
<g id="Designing for Wellbeing + Health">
<path d="M0.860962 58.1715V52.9651H2.16256C2.76998 52.9651 3.18938 53.2977 3.40632 53.7027C3.57986 54.0209 3.72449 54.621 3.72449 55.5683C3.72449 56.8916 3.39909 57.4556 3.30508 57.593C3.06645 57.9329 2.69767 58.1715 2.06133 58.1715H0.860962ZM1.20082 53.2544V57.8823H1.84439C2.41565 57.8823 2.89291 57.8027 3.146 57.217C3.34847 56.7542 3.36293 56.0673 3.36293 55.5683C3.36293 55.0694 3.34847 54.3173 3.1243 53.869C2.84952 53.3194 2.39396 53.2544 1.84439 53.2544H1.20082Z" fill="#414147"/>
<path d="M7.76386 57.5858L7.90848 57.904C7.46738 58.0992 7.03351 58.2511 6.5418 58.2511C5.42097 58.2511 5.0088 57.2459 5.0088 56.277C5.0088 55.308 5.43544 54.2667 6.56349 54.2667C7.20706 54.2667 7.96633 54.7295 7.96633 56.3131H5.34866C5.41374 57.6581 5.97054 57.9618 6.55626 57.9618C6.99013 57.9618 7.4023 57.8027 7.76386 57.5858ZM5.34866 56.0239H7.62647C7.66262 55.3658 7.27214 54.556 6.5201 54.556C5.7753 54.556 5.32697 55.3514 5.34866 56.0239Z" fill="#414147"/>
<path d="M11.89 54.6717L11.7454 54.9537C11.4417 54.7367 11.1018 54.556 10.7186 54.556C10.3353 54.556 9.95929 54.8452 9.95929 55.2501C9.95929 55.6985 10.4582 55.9082 10.8053 56.0383C11.3911 56.2625 12.0057 56.4939 12.0057 57.2387C12.0057 57.875 11.4417 58.2511 10.856 58.2511C10.3787 58.2511 9.76405 57.9546 9.41696 57.6364L9.60497 57.3616C9.91591 57.6726 10.4221 57.9618 10.8704 57.9618C11.2971 57.9618 11.6658 57.7232 11.6658 57.2604C11.6658 56.6891 11.2247 56.5228 10.7692 56.3493C10.2413 56.1468 9.61943 55.9009 9.61943 55.2212C9.61943 54.6789 10.169 54.2667 10.7403 54.2667C11.1814 54.2667 11.5429 54.4186 11.89 54.6717Z" fill="#414147"/>
<path d="M15.0689 58.1715V54.6355H13.9553V54.3463H15.4087V58.1715H15.0689ZM15.228 52.8639C15.4377 52.8639 15.6112 53.0302 15.6112 53.2399C15.6112 53.4496 15.4377 53.6159 15.228 53.6159C15.0183 53.6159 14.8519 53.4496 14.8519 53.2399C14.8519 53.0302 15.0183 52.8639 15.228 52.8639Z" fill="#414147"/>
<path d="M18.2839 58.8802L18.5225 58.6705C18.7467 58.938 19.1082 59.1043 19.4626 59.1043C19.8892 59.1043 20.4388 58.7934 20.4388 57.8317V57.3616C20.1784 57.6364 19.7374 57.8317 19.3613 57.8317C18.4502 57.8317 18.038 56.9205 18.038 56.1251C18.038 55.2429 18.3996 54.2667 19.4409 54.2667C19.8675 54.2667 20.1568 54.4547 20.4822 54.7078L20.5834 54.2667H20.9305C20.7569 54.9247 20.7642 55.6117 20.7642 56.2842V57.875C20.7642 59.0031 19.9832 59.3936 19.3975 59.3936C18.9998 59.3936 18.5514 59.1622 18.2839 58.8802ZM20.4243 56.9567V55.1128C20.2001 54.7946 19.8314 54.556 19.4264 54.556C18.6382 54.556 18.3779 55.4092 18.3779 56.06C18.3779 57.2676 19.0793 57.5424 19.3903 57.5424C19.7807 57.5424 20.2218 57.2966 20.4243 56.9567Z" fill="#414147"/>
<path d="M22.8656 56.5951V58.1715H22.5257V56.2553C22.5257 55.6045 22.504 54.9537 22.3739 54.3029H22.6921L22.8294 55.402H22.8439C22.9885 54.8307 23.5959 54.2667 24.2034 54.2667C24.8975 54.2667 25.0928 54.8669 25.0928 55.4454V58.1715H24.7529V55.6045C24.7529 55.1634 24.7529 54.556 24.16 54.556C23.6104 54.556 22.8656 55.1055 22.8656 56.5951Z" fill="#414147"/>
<path d="M28.0764 58.1715V54.6355H26.9628V54.3463H28.4163V58.1715H28.0764ZM28.2355 52.8639C28.4452 52.8639 28.6187 53.0302 28.6187 53.2399C28.6187 53.4496 28.4452 53.6159 28.2355 53.6159C28.0258 53.6159 27.8595 53.4496 27.8595 53.2399C27.8595 53.0302 28.0258 52.8639 28.2355 52.8639Z" fill="#414147"/>
<path d="M31.5373 56.5951V58.1715H31.1974V56.2553C31.1974 55.6045 31.1757 54.9537 31.0456 54.3029H31.3637L31.5011 55.402H31.5156C31.6602 54.8307 32.2676 54.2667 32.8751 54.2667C33.5692 54.2667 33.7645 54.8669 33.7645 55.4454V58.1715H33.4246V55.6045C33.4246 55.1634 33.4246 54.556 32.8317 54.556C32.2821 54.556 31.5373 55.1055 31.5373 56.5951Z" fill="#414147"/>
<path d="M35.6273 58.8802L35.8659 58.6705C36.0901 58.938 36.4516 59.1043 36.806 59.1043C37.2326 59.1043 37.7822 58.7934 37.7822 57.8317V57.3616C37.5218 57.6364 37.0807 57.8317 36.7047 57.8317C35.7936 57.8317 35.3814 56.9205 35.3814 56.1251C35.3814 55.2429 35.743 54.2667 36.7843 54.2667C37.2109 54.2667 37.5001 54.4547 37.8255 54.7078L37.9268 54.2667H38.2739C38.1003 54.9247 38.1076 55.6117 38.1076 56.2842V57.875C38.1076 59.0031 37.3266 59.3936 36.7409 59.3936C36.3432 59.3936 35.8948 59.1622 35.6273 58.8802ZM37.7677 56.9567V55.1128C37.5435 54.7946 37.1747 54.556 36.7698 54.556C35.9816 54.556 35.7213 55.4092 35.7213 56.06C35.7213 57.2676 36.4227 57.5424 36.7336 57.5424C37.1241 57.5424 37.5652 57.2966 37.7677 56.9567Z" fill="#414147"/>
<path d="M47.1336 53.1025V53.4641C46.7648 53.305 46.5479 53.1531 46.2297 53.1531C45.7307 53.1531 45.427 53.4279 45.427 53.9341V54.6066H46.6925V54.8958H45.427V58.1715H45.0872V54.8958H44.1037V54.6066H45.0872V54.1727C45.0872 53.1893 45.6512 52.8639 46.1935 52.8639C46.5117 52.8639 46.8443 52.9796 47.1336 53.1025Z" fill="#414147"/>
<path d="M49.8352 58.2511C49.1916 58.2511 48.3745 57.8172 48.3745 56.2553C48.3745 54.7657 49.141 54.2667 49.8352 54.2667C50.4715 54.2667 51.3031 54.6934 51.3031 56.2553C51.3031 57.81 50.4788 58.2511 49.8352 58.2511ZM49.8352 57.9618C50.7752 57.9618 50.9632 57.0001 50.9632 56.2553C50.9632 55.5105 50.7752 54.556 49.8352 54.556C48.9024 54.556 48.7144 55.5105 48.7144 56.2553C48.7144 57.0073 48.9024 57.9618 49.8352 57.9618Z" fill="#414147"/>
<path d="M53.5636 56.6168V58.1715H53.2238V55.5249L53.0864 54.3029H53.4118L53.5419 55.3875C53.795 54.8597 54.1927 54.2667 54.8508 54.2667C55.4871 54.2667 55.6534 54.9031 55.6534 55.4237H55.3136C55.3063 55.0694 55.2846 54.556 54.8218 54.556C54.4314 54.556 53.5636 55.1634 53.5636 56.6168Z" fill="#414147"/>
<path d="M62.8138 54.7223L63.7177 57.6147H63.7322L64.0359 52.9651H64.4336L64.0286 58.2221H63.5731L62.8138 55.6045L62.0618 58.2221H61.6062L61.2013 52.9651H61.599L61.9027 57.6147H61.9171L62.8138 54.7223Z" fill="#414147"/>
<path d="M68.4657 57.5858L68.6103 57.904C68.1692 58.0992 67.7354 58.2511 67.2437 58.2511C66.1228 58.2511 65.7107 57.2459 65.7107 56.277C65.7107 55.308 66.1373 54.2667 67.2654 54.2667C67.9089 54.2667 68.6682 54.7295 68.6682 56.3131H66.0505C66.1156 57.6581 66.6724 57.9618 67.2581 57.9618C67.692 57.9618 68.1042 57.8027 68.4657 57.5858ZM66.0505 56.0239H68.3283C68.3645 55.3658 67.974 54.556 67.222 54.556C66.4772 54.556 66.0288 55.3514 66.0505 56.0239Z" fill="#414147"/>
<path d="M71.3843 58.1715V53.0953H70.2562V52.806H71.7241V58.1715H71.3843Z" fill="#414147"/>
<path d="M75.7201 58.1715V53.0953H74.5921V52.806H76.06V58.1715H75.7201Z" fill="#414147"/>
<path d="M78.9279 52.806H79.2678V54.5921C79.5281 54.3824 79.868 54.2667 80.2078 54.2667C80.7357 54.2667 81.7119 54.7006 81.7119 56.2336C81.7119 57.7232 80.8658 58.2511 80.2295 58.2511C79.7812 58.2511 79.4124 58.0197 79.2099 57.622L79.0725 58.2511L78.7544 58.2077C78.8917 57.7593 78.9279 57.2966 78.9279 56.8265V52.806ZM79.2678 54.932V57.1953C79.4558 57.6075 79.7161 57.9618 80.2223 57.9618C80.6562 57.9618 81.372 57.5858 81.372 56.2553C81.372 54.8524 80.5549 54.556 80.121 54.556C79.7956 54.556 79.5064 54.7223 79.2678 54.932Z" fill="#414147"/>
<path d="M85.8091 57.5858L85.9537 57.904C85.5126 58.0992 85.0788 58.2511 84.5871 58.2511C83.4662 58.2511 83.0541 57.2459 83.0541 56.277C83.0541 55.308 83.4807 54.2667 84.6087 54.2667C85.2523 54.2667 86.0116 54.7295 86.0116 56.3131H83.3939C83.459 57.6581 84.0158 57.9618 84.6015 57.9618C85.0354 57.9618 85.4476 57.8027 85.8091 57.5858ZM83.3939 56.0239H85.6717C85.7079 55.3658 85.3174 54.556 84.5654 54.556C83.8205 54.556 83.3722 55.3514 83.3939 56.0239Z" fill="#414147"/>
<path d="M88.7783 58.1715V54.6355H87.6647V54.3463H89.1181V58.1715H88.7783ZM88.9374 52.8639C89.1471 52.8639 89.3206 53.0302 89.3206 53.2399C89.3206 53.4496 89.1471 53.6159 88.9374 53.6159C88.7277 53.6159 88.5613 53.4496 88.5613 53.2399C88.5613 53.0302 88.7277 52.8639 88.9374 52.8639Z" fill="#414147"/>
<path d="M92.2392 56.5951V58.1715H91.8993V56.2553C91.8993 55.6045 91.8776 54.9537 91.7474 54.3029H92.0656L92.203 55.402H92.2175C92.3621 54.8307 92.9695 54.2667 93.5769 54.2667C94.2711 54.2667 94.4663 54.8669 94.4663 55.4454V58.1715H94.1265V55.6045C94.1265 55.1634 94.1265 54.556 93.5335 54.556C92.984 54.556 92.2392 55.1055 92.2392 56.5951Z" fill="#414147"/>
<path d="M96.3291 58.8802L96.5678 58.6705C96.7919 58.938 97.1535 59.1043 97.5078 59.1043C97.9345 59.1043 98.484 58.7934 98.484 57.8317V57.3616C98.2237 57.6364 97.7826 57.8317 97.4066 57.8317C96.4955 57.8317 96.0833 56.9205 96.0833 56.1251C96.0833 55.2429 96.4448 54.2667 97.4861 54.2667C97.9128 54.2667 98.202 54.4547 98.5274 54.7078L98.6286 54.2667H98.9757C98.8022 54.9247 98.8094 55.6117 98.8094 56.2842V57.875C98.8094 59.0031 98.0285 59.3936 97.4427 59.3936C97.045 59.3936 96.5967 59.1622 96.3291 58.8802ZM98.4696 56.9567V55.1128C98.2454 54.7946 97.8766 54.556 97.4717 54.556C96.6835 54.556 96.4231 55.4092 96.4231 56.06C96.4231 57.2676 97.1246 57.5424 97.4355 57.5424C97.826 57.5424 98.2671 57.2966 98.4696 56.9567Z" fill="#414147"/>
<path d="M108.125 55.4092V55.7274H106.36V57.4918H106.042V55.7274H104.278V55.4092H106.042V53.6448H106.36V55.4092H108.125Z" fill="#414147"/>
<path d="M113.839 52.9651V55.3225H115.9V52.9651H116.24V58.1715H115.9V55.6117H113.839V58.1715H113.499V52.9651H113.839Z" fill="#414147"/>
<path d="M120.496 57.5858L120.641 57.904C120.199 58.0992 119.766 58.2511 119.274 58.2511C118.153 58.2511 117.741 57.2459 117.741 56.277C117.741 55.308 118.167 54.2667 119.296 54.2667C119.939 54.2667 120.698 54.7295 120.698 56.3131H118.081C118.146 57.6581 118.703 57.9618 119.288 57.9618C119.722 57.9618 120.134 57.8027 120.496 57.5858ZM118.081 56.0239H120.358C120.395 55.3658 120.004 54.556 119.252 54.556C118.507 54.556 118.059 55.3514 118.081 56.0239Z" fill="#414147"/>
<path d="M124.745 58.2077L124.434 58.2511C124.362 58.0414 124.311 57.8172 124.289 57.6003C124.022 57.9835 123.74 58.2511 123.241 58.2511C122.539 58.2511 122.178 57.6798 122.178 57.0362C122.178 56.3059 122.59 55.6768 123.328 55.6768C123.639 55.6768 123.993 55.7997 124.26 55.9299C124.282 54.9609 124.109 54.556 123.48 54.556C123.147 54.556 122.865 54.6717 122.561 54.8091L122.482 54.4981C122.814 54.368 123.14 54.2667 123.501 54.2667C124.203 54.2667 124.622 54.7584 124.6 55.6117L124.557 57.1736C124.55 57.5424 124.644 57.8895 124.745 58.2077ZM124.239 57.1881V56.1974C124 56.0745 123.711 55.966 123.407 55.966C122.771 55.966 122.518 56.5011 122.518 57.0652C122.518 57.4918 122.756 57.9618 123.241 57.9618C123.718 57.9618 124.007 57.5786 124.239 57.1881Z" fill="#414147"/>
<path d="M127.75 58.1715V53.0953H126.622V52.806H128.09V58.1715H127.75Z" fill="#414147"/>
<path d="M133.308 54.3463V54.6355H131.905V57.2459C131.905 57.6147 132.043 57.9618 132.513 57.9618C132.939 57.9618 133.236 57.6436 133.402 57.2821L133.728 57.3616C133.489 57.8534 133.07 58.2511 132.498 58.2511C132.007 58.2511 131.565 58.0124 131.565 57.0435V54.6355H130.705V54.3463H131.565V53.117H131.905V54.3463H133.308Z" fill="#414147"/>
<path d="M135.323 58.1715V52.806H135.663V55.1778H135.677C135.909 54.7006 136.371 54.2667 136.95 54.2667C137.304 54.2667 137.861 54.5487 137.861 55.3875V58.1715H137.521V55.7708C137.521 55.2863 137.456 54.556 136.892 54.556C136.248 54.556 135.663 55.3586 135.663 56.248V58.1715H135.323Z" fill="#414147"/>
</g>
</g>
</g>
<defs>
<clipPath id="clip0_3_216">
<rect width="1920" height="6989" fill="white" transform="translate(-310 -60)"/>
</clipPath>
</defs>
</svg>
