<svg width="26" height="14" viewBox="0 0 26 14" fill="none" xmlns="http://www.w3.org/2000/svg">
<path d="M18.3529 13.1176C18.775 13.5397 19.4602 13.5397 19.8823 13.1176L25.2352 7.76463C25.2853 7.71454 25.3301 7.6591 25.3702 7.59983C25.3886 7.5723 25.4012 7.54286 25.4168 7.51419C25.4348 7.48092 25.4551 7.44919 25.4696 7.41401C25.4853 7.37692 25.4941 7.3383 25.5052 7.29969C25.5136 7.27063 25.5251 7.24233 25.5308 7.21213C25.5587 7.07181 25.5587 6.92804 25.5308 6.78772C25.5251 6.75751 25.5132 6.7296 25.5052 6.70016C25.4941 6.66154 25.4853 6.62292 25.4696 6.58583C25.4551 6.55066 25.4348 6.51892 25.4168 6.48566C25.4012 6.45698 25.3886 6.42754 25.3702 6.40001C25.3301 6.34074 25.2853 6.2853 25.2352 6.23522L19.8823 0.882267C19.4602 0.460149 18.775 0.460148 18.3529 0.882267C17.9307 1.30438 17.9308 1.98956 18.3529 2.41168L21.8598 5.91863L1.52932 5.91863C0.932081 5.91863 0.448019 6.40269 0.448019 6.99992C0.448019 7.29892 0.568844 7.56886 0.764609 7.76463C0.960374 7.96039 1.23031 8.08122 1.52931 8.08122L21.8598 8.08122L18.3529 11.5882C17.9308 12.0103 17.9307 12.6955 18.3529 13.1176Z" fill="#00999E"/>
</svg>
